<?xml version="1.0" encoding="UTF-8"?>
<svg version="1.1" xmlns="http://www.w3.org/2000/svg" width="225" height="225">
<path d="M0 0 C74.25 0 148.5 0 225 0 C225 74.25 225 148.5 225 225 C150.75 225 76.5 225 0 225 C0 150.75 0 76.5 0 0 Z " fill="#FDFDFD" transform="translate(0,0)"/>
<path d="M0 0 C-14.06322416 14.37807246 -29.57959209 29.08954908 -50.5625 29.375 C-57.27474961 29.32666829 -64.5243977 29.23183834 -69.7265625 24.39453125 C-70.14679688 23.93433594 -70.56703125 23.47414062 -71 23 C-70.47535156 23.144375 -69.95070312 23.28875 -69.41015625 23.4375 C-56.76879907 26.46637759 -43.39279106 26.91302314 -32 20 C-28.13673062 17.20655907 -24.58015366 14.1434257 -21 11 C-18.96304179 9.34834284 -16.92148967 7.70233236 -14.875 6.0625 C-11.41846055 3.45048113 -11.41846055 3.45048113 -9 0 C-9.67417969 -0.21914062 -10.34835938 -0.43828125 -11.04296875 -0.6640625 C-15.58425231 -2.71573883 -19.27707015 -5.80702727 -23.20898438 -8.8359375 C-34.33313506 -17.23324509 -45.03755159 -20.28082944 -59 -19 C-66.91638493 -17.57178622 -72.62735865 -13.39524905 -78.67456055 -8.35400391 C-82.71703107 -5 -82.71703107 -5 -86 -5 C-57.04165178 -36.62686495 -29.10435089 -21.37350768 0 0 Z " fill="#0B0B0B" transform="translate(206,136)"/>
<path d="M0 0 C7.93873474 0.42011552 15.76092658 1.29793356 23.625 2.4375 C24.94032715 2.62082886 24.94032715 2.62082886 26.28222656 2.80786133 C27.52311035 2.99384888 27.52311035 2.99384888 28.7890625 3.18359375 C29.52850098 3.29243896 30.26793945 3.40128418 31.02978516 3.51342773 C33 4 33 4 36 6 C33.24992924 6.02750071 30.50014533 6.04707451 27.75 6.0625 C26.99203125 6.07087891 26.2340625 6.07925781 25.453125 6.08789062 C18.92934862 6.11507303 12.49223398 5.61602605 6 5 C6.70655552 9.08757136 7.44447609 13.16891347 8.1875 17.25 C8.38408203 18.38953125 8.58066406 19.5290625 8.78320312 20.703125 C11.32231583 34.45339688 15.68308601 45.99125458 27.16015625 54.625 C36.93988055 60.58867943 48.86719871 61.60016552 60 63 C60 63.33 60 63.66 60 64 C29.96664957 64.98432763 29.96664957 64.98432763 17 53 C6.12429198 42.65053592 4.0968173 30.68896306 2.30859375 16.39697266 C1.87435895 13.02409504 1.34573358 9.67113097 0.8125 6.3125 C0 1.11382114 0 1.11382114 0 0 Z " fill="#131313" transform="translate(45,74)"/>
<path d="M0 0 C0.66 0.33 1.32 0.66 2 1 C-2.23470898 5.35381017 -6.60853362 9.45406504 -11.19921875 13.4296875 C-13.23612913 15.2059087 -15.20303878 16.97841862 -17 19 C-17 19.66 -17 20.32 -17 21 C-14.9982762 22.51778504 -14.9982762 22.51778504 -12.375 24.0625 C-9.0041766 26.14088334 -5.64063379 28.22060084 -2.328125 30.390625 C-1.71275879 30.79273193 -1.09739258 31.19483887 -0.46337891 31.60913086 C0.73922286 32.39633194 1.94014391 33.18610815 3.13916016 33.97875977 C11.8789123 39.66148494 20.68552884 41.01291813 31 40 C42.49077493 37.42722272 51.02560031 30.22329731 60 23 C60.66 23.33 61.32 23.66 62 24 C50.38396291 35.64949893 40.1378992 45.19538845 22.875 45.25 C9.04065319 45.16418079 1.07065882 40.49663311 -9.92773438 32.50488281 C-11.98926256 31.00779755 -14.06255915 29.52871042 -16.140625 28.0546875 C-19.43606727 25.71544632 -22.72084667 23.36201513 -26 21 C-21.68245187 16.41151262 -16.86487171 12.64500981 -11.875 8.8125 C-11.06417969 8.18408203 -10.25335938 7.55566406 -9.41796875 6.90820312 C-6.32243446 4.51619936 -3.25629464 2.17086309 0 0 Z " fill="#0B0B0B" transform="translate(45,120)"/>
<path d="M0 0 C5.21635559 3.58686546 8.51861466 8.38080223 12.1875 13.4375 C12.81591797 14.28376953 13.44433594 15.13003906 14.09179688 16.00195312 C16.96244751 19.92261714 19.32819954 23.40621386 21 28 C20.31421875 27.31292969 19.6284375 26.62585938 18.921875 25.91796875 C16.85576156 23.85112678 14.78133444 21.79295696 12.703125 19.73828125 C11.55205219 18.59638556 10.40101094 17.45445805 9.25 16.3125 C8.66089844 15.73177734 8.07179687 15.15105469 7.46484375 14.55273438 C3.11290179 10.22580357 3.11290179 10.22580357 2 8 C1.34 8 0.68 8 0 8 C-1.32169898 9.52885988 -1.32169898 9.52885988 -2.609375 11.55078125 C-3.11428467 12.3072998 -3.61919434 13.06381836 -4.1394043 13.84326172 C-4.67090088 14.65811035 -5.20239746 15.47295898 -5.75 16.3125 C-6.28987549 17.13250488 -6.82975098 17.95250977 -7.38598633 18.79736328 C-16.42213791 32.64815968 -21.83099321 44.4112326 -18.31640625 61.28125 C-16.27166605 67.3221422 -13.14344418 72.17979327 -9 77 C-9.495 77.99 -9.495 77.99 -10 79 C-18.59024431 71.36896411 -24.16953722 62.54148725 -25.18359375 50.890625 C-25.7065528 33.54068939 -17.34280849 21.94887047 -7 9 C-5.62254117 7.23107862 -4.24719953 5.46050427 -2.875 3.6875 C-1.91703899 2.45804313 -0.95886875 1.22874903 0 0 Z " fill="#0C0C0C" transform="translate(110,46)"/>
<path d="M0 0 C0.44218238 9.28582994 -1.23226107 17.92981571 -3 27 C-3.33 27 -3.66 27 -4 27 C-4 19.74 -4 12.48 -4 5 C-31.57187429 8.61728524 -31.57187429 8.61728524 -53 25 C-59.19313164 33.66370706 -60.23970058 44.74278453 -62 55 C-62.33 55 -62.66 55 -63 55 C-63.05449228 52.16640156 -63.09390733 49.33387515 -63.125 46.5 C-63.14175781 45.70851562 -63.15851563 44.91703125 -63.17578125 44.1015625 C-63.27157418 32.41482544 -59.27383574 23.37289568 -51.375 14.75 C-42.45965831 6.40766704 -31.77906078 3.78399015 -20 2 C-19.32372559 1.89703613 -18.64745117 1.79407227 -17.95068359 1.68798828 C-5.7387872 -0.1407627 -5.7387872 -0.1407627 0 0 Z " fill="#090909" transform="translate(176,72)"/>
<path d="M0 0 C5.53100174 2.8427495 10.46212866 6.71662992 15.375 10.5 C10.11797199 17.51740896 2.18987789 23.81591834 -6.625 25.5 C-13.51905963 26.10206425 -19.76141457 26.52074429 -25.625 22.5 C-24.965 22.17 -24.305 21.84 -23.625 21.5 C-22.635 21.83 -21.645 22.16 -20.625 22.5 C-11.31334416 23.14218316 -4.54402419 20.56946213 2.94140625 15.09765625 C4.8202387 13.36156665 4.8202387 13.36156665 4.375 9.5 C-2.83973999 5.03069204 -9.14288714 2.79165877 -17.625 4.5 C-28.08175411 8.14133502 -37.12724887 14.54729453 -45.625 21.5 C-46.285 21.17 -46.945 20.84 -47.625 20.5 C-35.34886959 7.46970458 -19.16423103 -7.5837064 0 0 Z " fill="#BE902C" transform="translate(168.625,126.5)"/>
<path d="M0 0 C0.66 0.33 1.32 0.66 2 1 C-0.64 3.64 -3.28 6.28 -6 9 C0.25663214 15.25663214 4.47340013 17.24850221 13.4375 17.5 C19.88562656 17.3331828 24.44135659 16.14549584 30 13 C31.66194738 12.32165413 33.32598903 11.64800425 35 11 C30.55655602 16.96356955 26.19636689 20.76289007 19 23 C9.25662729 24.36287667 1.13041765 22.69785261 -6.83984375 16.953125 C-9.28030456 15.02266231 -11.66037381 13.05090636 -14 11 C-9.85989729 6.45924219 -5.17609824 3.28157862 0 0 Z " fill="#BE912F" transform="translate(55,129)"/>
<path d="M0 0 C14.78132118 1.74259681 14.78132118 1.74259681 21 5 C17.45325997 6.18224668 15.02477005 5.89329634 11.3125 5.5625 C10.13300781 5.46066406 8.95351562 5.35882813 7.73828125 5.25390625 C6.83464844 5.17011719 5.93101563 5.08632812 5 5 C9.36720523 20.31472656 9.36720523 20.31472656 20.73046875 30.93359375 C24.67143323 32.78537224 28.78696667 33.9381084 33 35 C33 35.33 33 35.66 33 36 C23.55066594 36.56696004 17.42412978 35.92138776 10.25 29.5625 C9.5075 28.716875 8.765 27.87125 8 27 C6.948125 25.9171875 6.948125 25.9171875 5.875 24.8125 C0.93302068 17.39953102 0.43269952 8.68383165 0 0 Z " fill="#BE912E" transform="translate(61,88)"/>
<path d="M0 0 C3.3410443 3.17570251 6.01456946 6.22748836 8.375 10.1875 C8.89835937 11.04730469 9.42171875 11.90710938 9.9609375 12.79296875 C10.30382812 13.52128906 10.64671875 14.24960938 11 15 C10.67 15.66 10.34 16.32 10 17 C7.36 14.36 4.72 11.72 2 9 C-1.63013639 10.21004546 -1.87693578 11.03622012 -3.625 14.3125 C-4.26308594 15.48232422 -4.26308594 15.48232422 -4.9140625 16.67578125 C-7.83454741 22.92645939 -8.19332206 30.31474071 -6.0703125 36.87109375 C-5.3433571 38.59823952 -4.58162897 40.31138685 -3.77734375 42.00390625 C-3.52082031 42.66261719 -3.26429687 43.32132813 -3 44 C-3.33 44.66 -3.66 45.32 -4 46 C-9.56572409 40.23614333 -12.98733891 34.83396363 -13.4375 26.6875 C-12.9430279 15.59991409 -7.22304393 7.97930281 0 0 Z " fill="#BE912E" transform="translate(111,67)"/>
<path d="M0 0 C0.56033446 8.2182388 -1.03839944 16.38453258 -6 23 C-5.67 17.39 -5.34 11.78 -5 6 C-14.2370338 8.16362954 -21.51814474 9.91719084 -29 16 C-29.33 15.34 -29.66 14.68 -30 14 C-23.22611621 5.27862462 -17.35261293 2.09271871 -6.515625 0.296875 C-4 0 -4 0 0 0 Z " fill="#BD902B" transform="translate(162,87)"/>
<path d="M0 0 C0 1.32 0 2.64 0 4 C-1.52367187 4.70962891 -1.52367187 4.70962891 -3.078125 5.43359375 C-12.21508596 9.78834415 -20.15611442 14.58227543 -28 21 C-28.66 20.67 -29.32 20.34 -30 20 C-8.49102773 -2.83034258 -8.49102773 -2.83034258 0 0 Z " fill="#BE912E" transform="translate(151,127)"/>
<path d="M0 0 C0.66 0.33 1.32 0.66 2 1 C2 1.66 2 2.32 2 3 C0.30508386 4.40268922 -1.457835 5.72390346 -3.25 7 C-4.22453125 7.70125 -5.1990625 8.4025 -6.203125 9.125 C-8.43602072 10.62191333 -10.56264072 11.88577861 -13 13 C-9.0580583 8.11950075 -4.88049925 3.9419417 0 0 Z " fill="#262626" transform="translate(133,119)"/>
<path d="M0 0 C0.66 0.33 1.32 0.66 2 1 C-0.31 3.31 -2.62 5.62 -5 8 C-6.32 7.01 -7.64 6.02 -9 5 C-8.43410156 4.72285156 -7.86820312 4.44570312 -7.28515625 4.16015625 C-6.55167969 3.79792969 -5.81820312 3.43570313 -5.0625 3.0625 C-3.96615234 2.52302734 -3.96615234 2.52302734 -2.84765625 1.97265625 C-1.03750973 1.13628173 -1.03750973 1.13628173 0 0 Z " fill="#C2973B" transform="translate(88,140)"/>
<path d="M0 0 C0.66 0.66 1.32 1.32 2 2 C-0.97 4.31 -3.94 6.62 -7 9 C-7.66 8.67 -8.32 8.34 -9 8 C-7.87811441 6.85111717 -6.75238316 5.70598863 -5.625 4.5625 C-4.99851562 3.92441406 -4.37203125 3.28632813 -3.7265625 2.62890625 C-2 1 -2 1 0 0 Z " fill="#CAA557" transform="translate(130,139)"/>
<path d="M0 0 C-0.99 0.495 -0.99 0.495 -2 1 C-1.67 1.66 -1.34 2.32 -1 3 C-1.99 3 -2.98 3 -4 3 C-4 2.34 -4 1.68 -4 1 C-6.97 1 -9.94 1 -13 1 C-13 0.67 -13 0.34 -13 0 C-11.58456585 -0.19658808 -10.16755969 -0.38187546 -8.75 -0.5625 C-7.96109375 -0.66691406 -7.1721875 -0.77132812 -6.359375 -0.87890625 C-3.99467126 -1.00027349 -2.2488963 -0.69633257 0 0 Z " fill="#BB8C23" transform="translate(77,148)"/>
<path d="M0 0 C0.6875 1.8125 0.6875 1.8125 1 4 C-0.4375 5.75 -0.4375 5.75 -2 7 C-2.66 5.68 -3.32 4.36 -4 3 C-2.68 2.01 -1.36 1.02 0 0 Z " fill="#C1973B" transform="translate(146,127)"/>
</svg>
